<svg width="583" height="155" viewBox="0 0 583 155" fill="none" xmlns="http://www.w3.org/2000/svg">
<path d="M100.376 96.7245L73.8 74.5256L41.1708 87.1362L35.1178 121.945L61.6934 144.144L94.3226 131.533L100.376 96.7245Z" fill="#0055FF"/>
<path d="M77.2012 32.3499L50.6256 10.1515L17.9964 22.762L11.9432 57.5709L38.5189 79.7697L71.1481 67.1591L77.2012 32.3499Z" fill="#0055FF"/>
<path d="M144.057 43.1771L117.481 20.9785L84.8519 33.589L78.7989 68.398L105.374 90.5967L138.004 77.9862L144.057 43.1771Z" fill="#0055FF"/>
<path d="M221.941 97.9218L230.08 110.501H214.7L210.048 103.577H209.731C205.01 104.493 201.099 104.951 197.998 104.951C187.92 104.951 179.904 101.851 173.949 95.6491C167.994 89.4123 165.017 80.9733 165.017 70.332C165.017 60.325 168.488 51.6922 175.429 44.4336C182.406 37.175 191.814 33.5457 203.653 33.5457C212.779 33.5457 220.514 36.3469 226.856 41.9495C233.234 47.552 236.423 56.1143 236.423 67.6365C236.423 80.709 231.595 90.8041 221.941 97.9218ZM202.649 92.3193L192.395 76.6217H207.881L214.277 86.3468C217.483 83.1051 219.615 80.0219 220.672 77.0973C221.729 74.1728 222.258 70.9839 222.258 67.5308C222.258 61.2235 220.39 56.0791 216.655 52.0974C212.92 48.0805 208.11 46.0721 202.226 46.0721C196.06 46.0721 190.722 48.4857 186.211 53.3131C181.736 58.1052 179.499 63.8486 179.499 70.5434C179.499 75.4412 180.538 79.6519 182.617 83.1755C184.731 86.6639 187.163 89.0599 189.911 90.3637C192.66 91.6674 196.447 92.3193 201.275 92.3193H202.649ZM249.266 59.2856H262.321L258.78 83.017L258.674 84.4969C258.674 86.7872 259.326 88.6195 260.63 89.9937C261.933 91.3327 263.66 92.0022 265.809 92.0022C267.888 92.0022 269.703 91.1917 271.253 89.5709C272.804 87.9148 273.773 85.7302 274.16 83.017L277.49 59.2856H290.386L287.797 77.573C286.775 84.6907 285.647 89.9408 284.414 93.3235C283.181 96.6709 281.031 99.4369 277.966 101.622C274.936 103.771 270.954 104.846 266.021 104.846C259.643 104.846 254.745 103.119 251.327 99.666C247.91 96.1776 246.201 91.1565 246.201 84.6026C246.201 82.0304 246.342 79.7224 246.623 77.6787L249.266 59.2856ZM328.864 59.6027L325.746 71.6534C324.477 71.0544 322.874 70.7549 320.936 70.7549C314.981 70.7549 311.422 74.7365 310.26 82.6999L307.088 104H294.139L300.852 59.2856H313.801L313.378 62.4568C316.937 59.6379 320.443 58.2285 323.896 58.2285C325.552 58.2285 327.208 58.6865 328.864 59.6027ZM334.995 59.2856H348.05L344.509 83.017L344.403 84.4969C344.403 86.7872 345.055 88.6195 346.359 89.9937C347.663 91.3327 349.389 92.0022 351.539 92.0022C353.617 92.0022 355.432 91.1917 356.982 89.5709C358.533 87.9148 359.502 85.7302 359.889 83.017L363.219 59.2856H376.116L373.526 77.573C372.504 84.6907 371.376 89.9408 370.143 93.3235C368.91 96.6709 366.76 99.4369 363.695 101.622C360.665 103.771 356.683 104.846 351.75 104.846C345.372 104.846 340.474 103.119 337.057 99.666C333.639 96.1776 331.93 91.1565 331.93 84.6026C331.93 82.0304 332.071 79.7224 332.353 77.6787L334.995 59.2856ZM418.769 34.6028H433.039L424.741 91.685H447.68L445.936 104H408.568L418.769 34.6028ZM491.284 65.0466L492.13 59.2856H505.132L498.525 104H485.629L486.263 99.3489C481.824 103.013 477.243 104.846 472.521 104.846C467.588 104.846 463.483 102.925 460.206 99.0846C456.965 95.2439 455.344 90.3813 455.344 84.4969C455.344 77.203 457.387 71.0191 461.475 65.9452C465.597 60.8712 470.583 58.3342 476.432 58.3342C481.612 58.3342 486.563 60.5717 491.284 65.0466ZM468.451 83.3341C468.451 86.3644 469.262 88.7957 470.883 90.6279C472.504 92.4602 474.688 93.3764 477.437 93.3764C480.643 93.3764 483.374 92.1079 485.629 89.5709C487.884 87.0339 489.012 83.8979 489.012 80.1629C489.012 77.2735 488.06 74.8422 486.158 72.869C484.29 70.8958 481.982 69.9092 479.234 69.9092C476.133 69.9092 473.561 71.1777 471.517 73.7147C469.473 76.2517 468.451 79.4581 468.451 83.3341ZM519.614 29.4231H532.722L527.648 63.1967C532.229 60.0255 536.739 58.4399 541.178 58.4399C546.006 58.4399 550.04 60.3955 553.282 64.3067C556.524 68.1826 558.145 73.0452 558.145 78.8944C558.145 86.012 556.013 92.1431 551.749 97.2875C547.486 102.397 542.447 104.951 536.633 104.951C531.982 104.951 527.296 102.767 522.574 98.3975L521.57 104H508.673L519.614 29.4231ZM524.477 83.017C524.477 85.9416 525.393 88.3905 527.225 90.3637C529.093 92.3017 531.4 93.2706 534.149 93.2706C537.073 93.2706 539.628 92.055 541.813 89.6237C543.997 87.1572 545.09 84.2679 545.09 80.9557C545.09 77.3616 544.262 74.6132 542.606 72.7105C540.985 70.7725 538.659 69.8035 535.629 69.8035C532.739 69.8035 530.15 71.1425 527.859 73.8204C525.604 76.4983 524.477 79.5639 524.477 83.017Z" fill="white"/>
</svg>
